<svg width="41" height="40" viewBox="0 0 41 40" fill="none" xmlns="http://www.w3.org/2000/svg">
<rect x="0.800049" width="40" height="40" rx="20" fill="#EAB308" fill-opacity="0.2"/>
<path d="M18.2211 25.4737V26.3158C18.2211 27.246 18.8809 28 19.6948 28H26.3264C27.1403 28 27.8 27.246 27.8 26.3158V16.2105C27.8 15.2804 27.1403 14.5263 26.3264 14.5263H24.8527H23.379M18.2211 25.4737H15.2737C14.4598 25.4737 13.8 24.7196 13.8 23.7895V13.6842C13.8 12.754 14.4598 12 15.2737 12H21.9053C22.7192 12 23.379 12.754 23.379 13.6842V14.5263M18.2211 25.4737V22.1053M20.0632 17.7748H24.4843M20.0632 19.5789H22.2737M20.0632 23.3684H25.9579M20.0632 25.4737H25.9579M18.2211 17.0526V16.2105C18.2211 15.7904 18.3557 15.4061 18.5784 15.1111M18.2211 17.0526V22.1053M18.2211 17.0526H15.6422M18.2211 22.1053H15.6422M15.6422 15.1111H18.5784M18.5784 15.1111C18.8486 14.753 19.2485 14.5263 19.6948 14.5263H23.379" stroke="#EAB308" stroke-linecap="round" stroke-linejoin="round"/>
</svg>
