<svg width="24" height="24" viewBox="0 0 24 24" fill="none" xmlns="http://www.w3.org/2000/svg">
<path fill-rule="evenodd" clip-rule="evenodd" d="M12 2.75C12.9681 2.75 13.9001 2.89847 14.7753 3.17334C15.1704 3.29746 15.5914 3.07772 15.7155 2.68254C15.8397 2.28736 15.6199 1.86638 15.2247 1.74227C14.2058 1.42224 13.1223 1.25 12 1.25C6.06294 1.25 1.25 6.06294 1.25 12C1.25 17.9371 6.06294 22.75 12 22.75C17.9371 22.75 22.75 17.9371 22.75 12C22.75 8.99296 21.5144 6.27316 19.525 4.32299C19.2292 4.03302 18.7544 4.03774 18.4644 4.33353C18.1745 4.62932 18.1792 5.10417 18.475 5.39414C20.1884 7.07382 21.25 9.41225 21.25 12C21.25 17.1086 17.1086 21.25 12 21.25C6.89137 21.25 2.75 17.1086 2.75 12C2.75 6.89137 6.89137 2.75 12 2.75Z" fill="#8F95B2"/>
<path fill-rule="evenodd" clip-rule="evenodd" d="M9.02778 9.55566C9.02778 8.03688 10.259 6.80566 11.7778 6.80566H12.2222C13.741 6.80566 14.9722 8.03688 14.9722 9.55566V9.77789C14.9722 10.1921 14.6364 10.5279 14.2222 10.5279C13.808 10.5279 13.4722 10.1921 13.4722 9.77789V9.55566C13.4722 8.86531 12.9126 8.30566 12.2222 8.30566H11.7778C11.0874 8.30566 10.5278 8.86531 10.5278 9.55566V9.65293C10.5278 10.1264 10.7953 10.5592 11.2188 10.771L13.4521 11.8876C14.3837 12.3534 14.9722 13.3057 14.9722 14.3473V14.4446C14.9722 15.9633 13.741 17.1946 12.2222 17.1946H11.7778C10.259 17.1946 9.02778 15.9633 9.02778 14.4446V14.2223C9.02778 13.8081 9.36357 13.4723 9.77778 13.4723C10.192 13.4723 10.5278 13.8081 10.5278 14.2223V14.4446C10.5278 15.1349 11.0874 15.6946 11.7778 15.6946H12.2222C12.9126 15.6946 13.4722 15.1349 13.4722 14.4446V14.3473C13.4722 13.8738 13.2047 13.441 12.7812 13.2293L10.5479 12.1126C9.61629 11.6468 9.02778 10.6946 9.02778 9.65293V9.55566Z" fill="#8F95B2"/>
<path fill-rule="evenodd" clip-rule="evenodd" d="M12 4.5835C12.4142 4.5835 12.75 4.91928 12.75 5.3335V7.55572C12.75 7.96993 12.4142 8.30572 12 8.30572C11.5858 8.30572 11.25 7.96993 11.25 7.55572V5.3335C11.25 4.91928 11.5858 4.5835 12 4.5835Z" fill="#8F95B2"/>
<path fill-rule="evenodd" clip-rule="evenodd" d="M12 15.6943C12.4142 15.6943 12.75 16.0301 12.75 16.4443V18.6666C12.75 19.0808 12.4142 19.4166 12 19.4166C11.5858 19.4166 11.25 19.0808 11.25 18.6666V16.4443C11.25 16.0301 11.5858 15.6943 12 15.6943Z" fill="#8F95B2"/>
</svg>
