<svg width="35" height="34" viewBox="0 0 35 34" fill="none" xmlns="http://www.w3.org/2000/svg">
<path d="M16.769 3.159C20.2318 3.159 23.056 5.93479 23.056 9.35223V16.0337H14.5408C13.9306 16.0337 13.448 16.5079 13.448 17.1077C13.448 17.6936 13.9306 18.1818 14.5408 18.1818H23.056V24.8493C23.056 28.2667 20.2318 31.0564 16.7406 31.0564H9.82908C6.35204 31.0564 3.52783 28.2806 3.52783 24.8632V9.36618C3.52783 5.93479 6.36623 3.159 9.84328 3.159H16.769ZM26.5993 12.2957C27.0177 11.8633 27.7012 11.8633 28.1197 12.2817L32.1927 16.3408C32.402 16.55 32.5135 16.8151 32.5135 17.108C32.5135 17.387 32.402 17.6659 32.1927 17.8612L28.1197 21.9203C27.9105 22.1295 27.6315 22.2411 27.3665 22.2411C27.0875 22.2411 26.8085 22.1295 26.5993 21.9203C26.1808 21.5018 26.1808 20.8184 26.5993 20.3999L28.8311 18.182H23.0563V16.0339H28.8311L26.5993 13.8161C26.1808 13.3976 26.1808 12.7141 26.5993 12.2957Z" fill="white"/>
</svg>
