<svg width="25" height="25" viewBox="0 0 25 25" fill="none" xmlns="http://www.w3.org/2000/svg">
<path fill-rule="evenodd" clip-rule="evenodd" d="M12.3867 14.914L12.4996 14.914L12.7522 14.9149C14.6828 14.9276 19.0947 15.1226 19.0947 18.113C19.0947 21.0837 14.8366 21.2775 12.7823 21.2901L12.0212 21.2901C10.0905 21.2774 5.67768 21.0826 5.67768 18.096C5.67768 15.1215 10.0905 14.9275 12.0212 14.9149L12.2738 14.914C12.3129 14.914 12.3506 14.914 12.3867 14.914ZM12.3867 16.414C10.0107 16.414 7.17768 16.706 7.17768 18.096C7.17768 19.4545 9.84158 19.7722 12.1695 19.7902L12.3867 19.791C14.7627 19.791 17.5947 19.5 17.5947 18.113C17.5947 16.709 14.7627 16.414 12.3867 16.414ZM20.3403 14.5082C22.7633 14.8712 23.2723 16.0092 23.2723 16.9002C23.2723 17.4442 23.0583 18.4372 21.6283 18.9822C21.5403 19.0152 21.4503 19.0312 21.3613 19.0312C21.0593 19.0312 20.7743 18.8472 20.6603 18.5482C20.5123 18.1612 20.7073 17.7272 21.0943 17.5802C21.7723 17.3222 21.7723 17.0372 21.7723 16.9002C21.7723 16.4622 21.2153 16.1562 20.1173 15.9922C19.7083 15.9302 19.4253 15.5492 19.4863 15.1382C19.5473 14.7282 19.9273 14.4552 20.3403 14.5082ZM5.28608 15.1382C5.34708 15.5492 5.06408 15.9302 4.65508 15.9922C3.55708 16.1562 3.00008 16.4622 3.00008 16.9002C3.00008 17.0372 3.00008 17.3212 3.67908 17.5802C4.06608 17.7272 4.26108 18.1612 4.11308 18.5482C3.99908 18.8472 3.71408 19.0312 3.41208 19.0312C3.32308 19.0312 3.23308 19.0152 3.14508 18.9822C1.71408 18.4362 1.50008 17.4432 1.50008 16.9002C1.50008 16.0102 2.00908 14.8712 4.43308 14.5082C4.84608 14.4562 5.22408 14.7282 5.28608 15.1382ZM12.3867 4.5C14.9067 4.5 16.9557 6.55 16.9557 9.069C16.9557 11.588 14.9067 13.638 12.3867 13.638H12.3597C11.1397 13.634 9.99668 13.156 9.14068 12.292C8.28268 11.429 7.81368 10.283 7.81864 9.066C7.81864 6.55 9.86768 4.5 12.3867 4.5ZM12.3867 6C10.6947 6 9.31866 7.377 9.31866 9.069C9.31568 9.889 9.62968 10.656 10.2047 11.235C10.7797 11.814 11.5457 12.135 12.3617 12.138L12.3867 12.888V12.138C14.0787 12.138 15.4557 10.762 15.4557 9.069C15.4557 7.377 14.0787 6 12.3867 6ZM18.5757 5.4795C20.3337 5.7685 21.6107 7.2725 21.6107 9.0555C21.6067 10.8505 20.2657 12.3905 18.4907 12.6395C18.4557 12.6445 18.4207 12.6465 18.3867 12.6465C18.0187 12.6465 17.6977 12.3755 17.6447 12.0005C17.5877 11.5895 17.8727 11.2105 18.2837 11.1535C19.3237 11.0075 20.1087 10.1055 20.1107 9.0535C20.1107 8.0105 19.3627 7.1285 18.3317 6.9595C17.9237 6.8925 17.6467 6.5065 17.7137 6.0975C17.7817 5.6885 18.1647 5.4145 18.5757 5.4795ZM7.05968 6.0975C7.12668 6.5065 6.84968 6.8925 6.44168 6.9595C5.41068 7.1285 4.66268 8.0105 4.66268 9.0555C4.66468 10.1055 5.44968 11.0085 6.48868 11.1535C6.89968 11.2105 7.18468 11.5895 7.12768 12.0005C7.07468 12.3755 6.75368 12.6465 6.38568 12.6465C6.35168 12.6465 6.31668 12.6445 6.28168 12.6395C4.50668 12.3905 3.16668 10.8505 3.16268 9.0575C3.16268 7.2725 4.43968 5.7685 6.19768 5.4795C6.61868 5.4135 6.99168 5.6905 7.05968 6.0975Z" fill="white"/>
</svg>
